<svg width="50" height="50" viewBox="0 0 50 50" fill="none" xmlns="http://www.w3.org/2000/svg">
<path d="M34.7181 40.2457C32.8335 42.1147 30.7759 41.8196 28.7952 40.9343C26.6991 40.0293 24.776 39.99 22.5646 40.9343C19.7954 42.154 18.3339 41.7999 16.6801 40.2457C7.29575 30.35 8.68033 15.2801 19.3339 14.7293C21.93 14.867 23.7376 16.1851 25.2568 16.3031C27.526 15.831 29.699 14.4735 32.122 14.6506C35.0258 14.8866 37.218 16.067 38.6603 18.1918C32.6604 21.8707 34.0835 29.9565 39.5833 32.2189C38.4872 35.17 37.0642 38.1013 34.6989 40.2654L34.7181 40.2457V40.2457ZM25.0645 14.6112C24.776 10.224 28.2567 6.60412 32.2566 6.25C32.8143 11.3257 27.7567 15.103 25.0645 14.6112Z" fill="black"/>
</svg>
