<svg width="37" height="34" viewBox="0 0 37 34" fill="none" xmlns="http://www.w3.org/2000/svg">
<path fill-rule="evenodd" clip-rule="evenodd" d="M9.92308 11.5769H13.2308V0H16.5385V11.5769C16.5385 15.0831 13.7931 17.9277 10.3365 18.1427V33.0769H6.20192V18.1427C2.74538 17.9277 0 15.0831 0 11.5769V0H3.30769V11.5769H6.61538V0H9.92308V11.5769ZM19.8462 16.5385C19.8462 7.40452 27.2507 0 36.3846 0V3.30784C29.0775 3.30784 23.1538 9.23146 23.1538 16.5386C23.1538 23.8458 29.0775 29.7694 36.3846 29.7694V33.0769C27.2507 33.0769 19.8462 25.6724 19.8462 16.5385ZM26.4615 16.5386C26.4615 11.0582 30.9043 6.61549 36.3846 6.61549V9.92314C32.731 9.92314 29.7692 12.8849 29.7692 16.5385C29.7692 20.1921 32.731 23.1539 36.3846 23.1539V26.4616C30.9043 26.4616 26.4615 22.0189 26.4615 16.5386Z" fill="#13E2C9"/>
</svg>
