<svg width="50" height="50" viewBox="0 0 50 50" fill="none" xmlns="http://www.w3.org/2000/svg">
<path d="M40.9183 25.3702C40.9183 23.9998 40.8071 22.9998 40.5664 21.9628H24.9184V28.1479H34.1034C33.9183 29.685 32.9183 31.9998 30.6961 33.5552L30.6649 33.7623L35.6125 37.5951L35.9553 37.6294C39.1034 34.7219 40.9183 30.4442 40.9183 25.3702" fill="#4285F4"/>
<path d="M24.9147 41.6664C29.4146 41.6664 33.1923 40.1848 35.9517 37.6294L30.6924 33.5553C29.2851 34.5367 27.3961 35.2219 24.9147 35.2219C20.5074 35.2219 16.7667 32.3146 15.4333 28.2961L15.2378 28.3127L10.0932 32.2942L10.0259 32.4812C12.7666 37.9256 18.3962 41.6664 24.9147 41.6664Z" fill="#34A853"/>
<path d="M15.4369 28.2959C15.0851 27.2589 14.8815 26.1477 14.8815 24.9996C14.8815 23.8514 15.0851 22.7404 15.4184 21.7033L15.4091 21.4825L10.2 17.4371L10.0296 17.5181C8.90004 19.7774 8.25189 22.3145 8.25189 24.9996C8.25189 27.6848 8.90004 30.2217 10.0296 32.481L15.4369 28.2959" fill="#FBBC05"/>
<path d="M24.9147 14.7776C28.0443 14.7776 30.1553 16.1294 31.3591 17.2591L36.0627 12.6665C33.174 9.98139 29.4146 8.33325 24.9147 8.33325C18.3962 8.33325 12.7666 12.0739 10.0259 17.5183L15.4148 21.7035C16.7667 17.685 20.5074 14.7776 24.9147 14.7776" fill="#EB4335"/>
</svg>
