<svg width="40" height="40" viewBox="0 0 40 40" fill="none" xmlns="http://www.w3.org/2000/svg">
<path fill-rule="evenodd" clip-rule="evenodd" d="M10 3.33337L13.3333 6.66671L16.6667 3.33337L20 6.66671L23.3333 3.33337L26.6667 6.66671L30 3.33337L33.3333 6.66671L36.6667 3.33337V34.6667C36.6667 35.7713 35.7712 36.6667 34.6667 36.6667H5.33333C4.22876 36.6667 3.33333 35.7713 3.33333 34.6667V3.33337L6.66667 6.66671L10 3.33337ZM20 13.3334H10V23.3334H20V13.3334ZM30 13.3334V16.6667H23.3333V13.3334H30ZM30 23.3334V20H23.3333V23.3334H30ZM10 26.6667H20V30H10V26.6667ZM30 30V26.6667H23.3333V30H30Z" fill="black"/>
</svg>
