<svg width="40" height="40" viewBox="0 0 40 40" fill="none" xmlns="http://www.w3.org/2000/svg">
<path fill-rule="evenodd" clip-rule="evenodd" d="M18.4043 31.2831C18.3055 31.3518 18.2069 31.4186 18.1086 31.4834C15.493 33.2104 13.6501 33.2695 12.6667 32.7017C11.6833 32.1339 10.813 30.5085 11.0008 27.3797C11.0079 27.2622 11.0164 27.1435 11.0265 27.0236C12.3591 27.4501 13.821 27.7844 15.3764 28.0085C16.3482 29.2434 17.3687 30.3424 18.4043 31.2831ZM13.7072 25.6744C12.862 25.4878 12.0623 25.2657 11.3164 25.0136C11.471 24.2415 11.6785 23.4379 11.9395 22.6127C12.2034 23.131 12.4847 23.6496 12.7832 24.1666C13.0818 24.6837 13.3902 25.1866 13.7072 25.6744ZM20 26.3334C18.7746 26.3334 17.5896 26.2632 16.4595 26.1325C15.7813 25.2192 15.128 24.2279 14.5153 23.1666C13.9025 22.1054 13.3708 21.044 12.9189 20C13.3708 18.9559 13.9025 17.8946 14.5153 16.8333C15.128 15.772 15.7812 14.7809 16.4595 13.8675C17.5896 13.7368 18.7746 13.6667 20 13.6667C21.2255 13.6667 22.4106 13.7368 23.5407 13.8675C24.2189 14.7809 24.8722 15.7721 25.4849 16.8333C26.0976 17.8946 26.6294 18.9559 27.0813 20C26.6294 21.044 26.0976 22.1054 25.4849 23.1666C24.8722 24.2279 24.2189 25.2191 23.5407 26.1325C22.4105 26.2632 21.2255 26.3334 20 26.3334ZM20 28.3334C19.403 28.3334 18.8133 28.3177 18.2325 28.287C18.8166 28.9257 19.4087 29.5071 20.0001 30.027C20.5914 29.5071 21.1835 28.9257 21.7677 28.287C21.1868 28.3177 20.5971 28.3334 20 28.3334ZM21.5959 31.2831C22.6315 30.3423 23.652 29.2434 24.6238 28.0085C26.1791 27.7844 27.6411 27.4501 28.9737 27.0236C28.9837 27.1435 28.9923 27.2622 28.9993 27.3797C29.1871 30.5085 28.3168 32.1339 27.3334 32.7017C26.35 33.2695 24.5072 33.2104 21.8915 31.4834C21.7932 31.4186 21.6947 31.3518 21.5959 31.2831ZM28.3334 34.4337C30.5123 33.1757 31.3507 30.1168 30.9111 26.2995C34.4367 24.7715 36.6667 22.516 36.6667 20C36.6667 17.4841 34.4367 15.2285 30.9111 13.7005C31.3507 9.88325 30.5123 6.82422 28.3334 5.56622C26.1545 4.30823 23.0862 5.11167 20.0001 7.40097C16.914 5.11167 13.8456 4.30823 11.6667 5.56622C9.48785 6.82421 8.64946 9.88321 9.08902 13.7005C5.56335 15.2284 3.33333 17.484 3.33333 20C3.33333 22.516 5.56334 24.7716 9.08901 26.2996C8.64948 30.1168 9.48786 33.1758 11.6667 34.4337C13.8456 35.6917 16.914 34.8883 20.0001 32.599C23.0862 34.8883 26.1545 35.6917 28.3334 34.4337ZM30.8907 15.8963C30.7854 15.8437 30.6783 15.7917 30.5694 15.7405C30.2725 17.1077 29.8311 18.541 29.2475 20C29.8311 21.459 30.2725 22.8923 30.5695 24.2595C30.6783 24.2083 30.7854 24.1564 30.8907 24.1037C33.6942 22.702 34.6667 21.1355 34.6667 20C34.6667 18.8645 33.6942 17.298 30.8907 15.8963ZM28.9993 12.6202C28.9923 12.7378 28.9837 12.8566 28.9737 12.9765C27.6411 12.55 26.1792 12.2157 24.6238 11.9916C23.6521 10.7566 22.6315 9.65764 21.5959 8.71686C21.6947 8.64819 21.7932 8.5814 21.8915 8.51652C24.5072 6.78951 26.35 6.73051 27.3334 7.29827C28.3168 7.86604 29.1871 9.49148 28.9993 12.6202ZM28.6837 14.9865C27.9378 14.7343 27.1382 14.5123 26.2931 14.3257C26.61 14.8134 26.9184 15.3163 27.217 15.8333C27.5155 16.3504 27.7968 16.869 28.0607 17.3873C28.3217 16.5621 28.5292 15.7586 28.6837 14.9865ZM20.0001 9.97295C20.5915 10.4929 21.1836 11.0743 21.7678 11.713C21.1869 11.6824 20.5971 11.6667 20 11.6667C19.4029 11.6667 18.8132 11.6824 18.2324 11.713C18.8166 11.0743 19.4087 10.4929 20.0001 9.97295ZM18.4043 8.71685C17.3686 9.65763 16.3481 10.7566 15.3764 11.9915C13.821 12.2156 12.3591 12.5499 11.0265 12.9764C11.0164 12.8565 11.0079 12.7378 11.0008 12.6202C10.813 9.49148 11.6833 7.86604 12.6667 7.29827C13.6501 6.73051 15.493 6.78951 18.1086 8.51652C18.2069 8.5814 18.3055 8.64819 18.4043 8.71685ZM11.3164 14.9865C12.0623 14.7343 12.8619 14.5122 13.7071 14.3257C13.3902 14.8134 13.0817 15.3162 12.7832 15.8333C12.4847 16.3504 12.2034 16.869 11.9395 17.3873C11.6785 16.5621 11.471 15.7585 11.3164 14.9865ZM10.7527 20C10.1691 18.5409 9.72762 17.1077 9.43071 15.7404C9.32181 15.7917 9.21467 15.8436 9.10931 15.8963C6.30585 17.298 5.33333 18.8645 5.33333 20C5.33333 21.1355 6.30585 22.702 9.10931 24.1037C9.21466 24.1564 9.3218 24.2084 9.4307 24.2596C9.7276 22.8923 10.1691 21.459 10.7527 20ZM26.293 25.6743C27.1382 25.4878 27.9378 25.2657 28.6837 25.0135C28.5292 24.2414 28.3217 23.4379 28.0607 22.6127C27.7968 23.131 27.5155 23.6496 27.217 24.1666C26.9184 24.6837 26.61 25.1866 26.293 25.6743ZM20 23.3334C21.841 23.3334 23.3333 21.841 23.3333 20C23.3333 18.1591 21.841 16.6667 20 16.6667C18.1591 16.6667 16.6667 18.1591 16.6667 20C16.6667 21.841 18.1591 23.3334 20 23.3334Z" fill="#F1B721"/>
</svg>
