<svg width="50" height="43" viewBox="0 0 50 43" fill="none" xmlns="http://www.w3.org/2000/svg">
<path d="M50 5.40196C48.1597 6.2598 46.1759 6.82353 44.1205 7.09314C46.2237 5.79412 47.849 3.73529 48.6138 1.2598C46.63 2.48529 44.4312 3.34314 42.1128 3.83333C40.2247 1.72549 37.5717 0.5 34.5602 0.5C28.9436 0.5 24.3547 5.20588 24.3547 11.0147C24.3547 11.848 24.4503 12.6569 24.6176 13.4167C16.109 12.9755 8.53251 8.78431 3.48948 2.43627C2.60516 3.98039 2.10325 5.79412 2.10325 7.70588C2.10325 11.3578 3.89579 14.5931 6.66826 16.4314C4.97132 16.4314 3.39388 15.9412 2.00765 15.2059V15.2794C2.00765 20.3775 5.54493 24.6422 10.2294 25.598C8.72545 26.0201 7.1465 26.0788 5.61664 25.7696C6.26579 27.859 7.53713 29.6873 9.25195 30.9974C10.9668 32.3075 13.0388 33.0336 15.1769 33.0735C11.5527 36.0158 7.06022 37.6062 2.43786 37.5833C1.62524 37.5833 0.81262 37.5343 0 37.4363C4.54111 40.4265 9.94264 42.1667 15.7266 42.1667C34.5602 42.1667 44.9092 26.1373 44.9092 12.2402C44.9092 11.7745 44.9092 11.3333 44.8853 10.8676C46.8929 9.39706 48.6138 7.53431 50 5.40196Z" fill="#4DA9FF"/>
</svg>
