<svg width="40" height="38" viewBox="0 0 40 38" fill="none" xmlns="http://www.w3.org/2000/svg">
<g clip-path="url(#clip0_29_3419)">
<path fill-rule="evenodd" clip-rule="evenodd" d="M20 0C18.5497 1.52842 18.5298 3.44264 18.5298 3.79531C18.5298 5.82287 18.8079 9.42473 18.8079 13.3666C18.8079 19.5376 15.6954 23.6431 15.6954 23.6431C15.6954 23.6431 15.6424 23.7439 15.0066 23.7439C14.3709 23.7439 12.9934 23.2527 12.9934 21.8045C12.9934 20.3561 14.6755 19.9532 14.9934 19.9532C15.3113 19.9532 15.4702 20.0035 15.4702 20.0035C15.4702 20.0035 15.1523 17.3588 14.4371 11.3894C13.0464 5.00431 8 2.77523 8 2.77523V30.3934H14.7285C14.7285 30.3934 15.2186 34.2849 18.8079 36.7659C18.8079 36.7659 19.947 37.6978 20 38C20.053 37.6978 21.1921 36.7659 21.1921 36.7659C24.7814 34.285 25.2715 30.3934 25.2715 30.3934H32V2.77523C32 2.77523 26.9537 5.00435 25.5629 11.3894C24.8477 17.3588 24.5298 20.0035 24.5298 20.0035C24.5298 20.0035 24.6887 19.9532 25.0066 19.9532C25.3245 19.9532 27.0066 20.3562 27.0066 21.8045C27.0066 23.2528 25.6291 23.744 24.9933 23.744C24.3576 23.744 24.3046 23.6432 24.3046 23.6432C24.3046 23.6432 21.1921 19.5376 21.1921 13.3667C21.1921 9.42476 21.4702 5.82293 21.4702 3.79534C21.4702 3.4427 21.4503 1.52849 20 3.16667e-05V0V0ZM29.9602 6.84301C29.9602 6.84301 28.1325 9.0091 27.6027 11.5531C27.3113 13.8955 26.7285 18.4545 26.7285 18.4545C26.7285 18.4545 28.4768 19.1597 28.8742 20.8977C29.2185 20.8977 29.9602 20.8977 29.9602 20.8977V6.84301V6.84301ZM25.0861 25.6833C25.5099 25.6833 28.3046 25.293 28.8742 22.8119H29.9602V28.5295H25.5099C25.5099 28.5295 25.5099 26.9679 25.0861 25.6833ZM23.4305 28.5044H21.0066C21.0066 28.5044 21.0849 26.4664 23.1126 26.1619C23.2847 26.6908 23.4305 27.3331 23.4305 28.5044V28.5044ZM21.0331 30.3934H23.0994C23.0994 30.3934 22.8741 32.6728 21.0331 34.2974C21.0331 33.2648 21.0331 30.3934 21.0331 30.3934ZM10.0398 6.84298C10.0398 6.84298 11.8675 9.00907 12.3973 11.553C12.6887 13.8955 13.2715 18.4545 13.2715 18.4545C13.2715 18.4545 11.5232 19.1597 11.1258 20.8976C10.7814 20.8976 10.0398 20.8976 10.0398 20.8976V6.84298V6.84298ZM14.9139 25.6833C14.4901 25.6833 11.6954 25.293 11.1258 22.8119H10.0398V28.5294H14.4901C14.4901 28.5294 14.4901 26.9679 14.9139 25.6833V25.6833ZM16.5695 28.5044H18.9933C18.9933 28.5044 18.9151 26.4664 16.8874 26.1619C16.7153 26.6908 16.5695 27.3331 16.5695 28.5044V28.5044ZM18.9669 30.3934H16.9007C16.9007 30.3934 17.1259 32.6728 18.9669 34.2974C18.9669 33.2648 18.9669 30.3934 18.9669 30.3934ZM20 19.1346C20 19.1346 19.1127 22.2578 17.6954 24.298C18.2251 24.6254 20 25.7715 20 25.7715C20 25.7715 21.7749 24.6254 22.3046 24.298C20.8873 22.2578 20 19.1346 20 19.1346Z" fill="#2D74FF"/>
</g>
<defs>
<clipPath id="clip0_29_3419">
<rect width="40" height="38" fill="white"/>
</clipPath>
</defs>
</svg>
